{"title":"X-Art - 2013-10-18 - All Tied Up - Eufrat &amp; Caprice &amp; Li","uid":9072231,"size":164745487,"categoryP":"porn","categoryS":"movie_clips","magnet":"?xt=urn:btih:26fbb7f26095a699d1704d51fb95d17be1f7bb4a&amp;dn=X-Art+-+2013-10-18+-+All+Tied+Up+-+Eufrat+%26amp%3B+Caprice+%26amp%3B+Li&amp;tr=udp%3A%2F%2Ftracker.openbittorrent.com%3A80&amp;tr=udp%3A%2F%2Fopen.demonii.com%3A1337&amp;tr=udp%3A%2F%2Ftracker.coppersurfer.tk%3A6969&amp;tr=udp%3A%2F%2Fexodus.desync.com%3A6969","seeders":1,"leechers":0,"uploader":"Uncle_Sukita","files":-1,"time":1382219212,"description":"General\n\nComplete name                            : X-Art - 2013-10-18 - All Tied Up - Eufrat &amp; Caprice &amp; Lisa.mp4\nFormat                                   : MPEG-4\nFormat profile                           : Base Media / Version 2\nCodec ID                                 : mp42\nFile size                                : 157 MiB\nDuration                                 : 17mn 18s\nOverall bit rate mode                    : Variable\nOverall bit rate                         : 1 269 Kbps\nEncoded date                             : UTC 2013-10-19 15:57:43\nTagged date                              : UTC 2013-10-19 16:32:40\nWriting application                      : HandBrake 0.9.9 2013052900\n\nVideo\nID                                       : 1\nFormat                                   : AVC\nFormat/Info                              : Advanced Video Codec\nFormat profile                           : &lt;a class=&quot;__cf_email__&quot; href=&quot;/cdn-cgi/l/email-protection&quot; data-cfemail=&quot;5810313f3018146c7669&quot;&gt;[email&amp;#160;protected]&lt;/a&gt;&lt;script cf-hash='f9e31' type=&quot;text/javascript&quot;&gt;\n/* &lt;![CDATA[ */!function(){try{var t=&quot;currentScript&quot;in document?document.currentScript:function(){for(var t=document.getElementsByTagName(&quot;script&quot;),e=t.length;e--;)if(t[e].getAttribute(&quot;cf-hash&quot;))return t[e]}();if(t&amp;&amp;t.previousSibling){var e,r,n,i,c=t.previousSibling,a=c.getAttribute(&quot;data-cfemail&quot;);if(a){for(e=&quot;&quot;,r=parseInt(a.substr(0,2),16),n=2;a.length-n;n+=2)i=parseInt(a.substr(n,2),16)^r,e+=String.fromCharCode(i);e=document.createTextNode(e),c.parentNode.replaceChild(e,c)}}}catch(u){}}();/* ]]&gt; */&lt;/script&gt;\nFormat settings, CABAC                   : Yes\nFormat settings, ReFrames                : 4 frames\nCodec ID                                 : avc1\nCodec ID/Info                            : Advanced Video Coding\nDuration                                 : 17mn 18s\nBit rate mode                            : Variable\nBit rate                                 : 1 116 Kbps\nWidth                                    : 960 pixels\nHeight                                   : 408 pixels\nDisplay aspect ratio                     : 2.35:1\nOriginal display aspect ratio            : 2.35:1\nFrame rate mode                          : Constant\nFrame rate                               : 25.000 fps\nColor space                              : YUV\nChroma subsampling                       : 4:2:0\nBit depth                                : 8 bits\nScan type                                : Progressive\nBits/(Pixel*Frame)                       : 0.114\nStream size                              : 138 MiB (88%)\nWriting library                          : x264 core 130 r2273 b3065e6\nEncoding settings                        : cabac=1 // deblock=1:0:0 / analyse=0x3:0x113 / me=hex / subme=7 / psy=1 / psy_rd=1.00:0.00 // me_range=16 / chroma_me=1 / trellis=1 / 8x8dct=1 / cqm=0 / deadzone=21,11 / fast_pskip=1 / chroma_qp_offset=-2 / threads=3 / lookahead_threads=1 / sliced_threads=0 / nr=0 / decimate=1 / interlaced=0 / bluray_compat=0 / constrained_intra=0 / bframes=3 / b_pyramid=2 / b_adapt=1 / b_bias=0 / direct=1 / weightb=1 / open_gop=0 / weightp=2 / keyint=250 / keyint_min=25 / scenecut=40 / intra_refresh=0 / rc_lookahead=40 / rc=crf / mbtree=1 / crf=20.0 / qcomp=0.60 / qpmin=0 / qpmax=69 / qpstep=4 / vbv_maxrate=62500 / vbv_bufsize=78125 / crf_max=0.0 / nal_hrd=none / ip_ratio=1.40 / aq=1:1.00\nEncoded date                             : UTC 2013-10-19 15:57:43\nTagged date                              : UTC 2013-10-19 16:32:40\nColor primaries                          : BT.709\nTransfer characteristics                 : BT.709\nMatrix coefficients                      : BT.709\n\nAudio\nID                                       : 2\nFormat                                   : AAC\nFormat/Info                              : Advanced Audio Codec\nFormat profile                           : LC\nCodec ID                                 : 40\nDuration                                 : 17mn 18s\nBit rate mode                            : Variable\nBit rate                                 : 148 Kbps\nMaximum bit rate                         : 173 Kbps\nChannel(s)                               : 2 channels\nChannel positions                        : Front: L R\nSampling rate                            : 48.0 KHz\nCompression mode                         : Lossy\nDelay relative to video                  : 80ms\nStream size                              : 18.4 MiB (12%)\nLanguage                                 : English\nEncoded date                             : UTC 2013-10-19 15:57:43\nTagged date                              : UTC 2013-10-19 16:32:40\n\nRT","torrent":{"xt":"urn:btih:26fbb7f26095a699d1704d51fb95d17be1f7bb4a","amp;dn":"X-Art+-+2013-10-18+-+All+Tied+Up+-+Eufrat+%26amp%3B+Caprice+%26amp%3B+Li","amp;tr":["udp%3A%2F%2Ftracker.openbittorrent.com%3A80","udp%3A%2F%2Fopen.demonii.com%3A1337","udp%3A%2F%2Ftracker.coppersurfer.tk%3A6969","udp%3A%2F%2Fexodus.desync.com%3A6969"],"infoHash":"26fbb7f26095a699d1704d51fb95d17be1f7bb4a","infoHashBuffer":{"type":"Buffer","data":[38,251,183,242,96,149,166,153,209,112,77,81,251,149,209,123,225,247,187,74]},"announce":[],"urlList":[]}}